<?xml version="1.0" encoding="UTF-8" standalone="no"?>
<!-- Generator: Adobe Illustrator 15.1.0, SVG Export Plug-In . SVG Version: 6.00 Build 0)  -->

<svg
   xmlns:dc="http://purl.org/dc/elements/1.1/"
   xmlns:cc="http://creativecommons.org/ns#"
   xmlns:rdf="http://www.w3.org/1999/02/22-rdf-syntax-ns#"
   xmlns:svg="http://www.w3.org/2000/svg"
   xmlns="http://www.w3.org/2000/svg"
   xmlns:sodipodi="http://sodipodi.sourceforge.net/DTD/sodipodi-0.dtd"
   xmlns:inkscape="http://www.inkscape.org/namespaces/inkscape"
   version="1.0"
   id="Layer_1"
   x="0px"
   y="0px"
   width="337.45001"
   height="337.341"
   viewBox="0 0 337.45001 337.341"
   enable-background="new 0 0 792 612"
   xml:space="preserve"
   inkscape:version="0.48.4 r9939"
   sodipodi:docname="css3.svg"><metadata
     id="metadata49"><rdf:RDF><cc:Work
         rdf:about=""><dc:format>image/svg+xml</dc:format><dc:type
           rdf:resource="http://purl.org/dc/dcmitype/StillImage" /><dc:title></dc:title></cc:Work></rdf:RDF></metadata><defs
     id="defs47" /><sodipodi:namedview
     pagecolor="#ffffff"
     bordercolor="#666666"
     borderopacity="1"
     objecttolerance="10"
     gridtolerance="10"
     guidetolerance="10"
     inkscape:pageopacity="0"
     inkscape:pageshadow="2"
     inkscape:window-width="640"
     inkscape:window-height="480"
     id="namedview45"
     showgrid="false"
     inkscape:zoom="0.38257576"
     inkscape:cx="-36.071"
     inkscape:cy="195.011"
     inkscape:window-x="2675"
     inkscape:window-y="309"
     inkscape:window-maximized="0"
     inkscape:current-layer="Layer_1"
     fit-margin-top="0"
     fit-margin-left="20"
     fit-margin-right="20"
     fit-margin-bottom="0" /><polygon
     points="452.071,163.67 749.521,163.67 722.425,467.241 600.614,501.011 479.142,467.29 "
     id="polygon29"
     style="fill:#1572b6"
     transform="translate(-432.071,-163.67)" /><polygon
     points="699.225,447.911 722.382,188.496 600.798,188.496 600.798,475.199 "
     id="polygon31"
     style="fill:#33a9dc"
     transform="translate(-432.071,-163.67)" /><g
     id="g33"
     transform="translate(-432.071,-163.67)"><polygon
       points="650.072,298.496 653.475,260.364 600.797,260.364 600.797,223.125 600.926,223.125 694.172,223.125 693.279,233.116 684.127,335.732 600.797,335.732 600.797,298.496 "
       id="polygon35"
       style="fill:#ffffff" /><polygon
       points="556.733,354.353 536.582,354.353 519.354,354.353 524.57,412.82 600.848,433.996 601.02,433.948 601.02,395.204 600.857,395.25 559.385,384.051 "
       id="polygon37"
       style="fill:#ebebeb" /><polygon
       points="646.907,334.156 642.423,384.026 600.891,395.236 600.891,433.978 677.23,412.82 677.79,406.53 684.268,334.156 "
       id="polygon39"
       style="fill:#ffffff" /><polygon
       points="600.926,246.253 600.926,260.272 600.926,260.364 511.098,260.364 511.098,260.364 510.979,260.364 510.232,251.994 508.535,233.116 507.645,223.125 600.926,223.125 "
       id="polygon41"
       style="fill:#ebebeb" /><polygon
       points="600.797,321.629 600.797,335.646 600.797,335.738 559.969,335.738 559.969,335.738 559.85,335.738 559.104,327.369 557.406,308.491 556.516,298.5 600.797,298.5 "
       id="polygon43"
       style="fill:#ebebeb" /></g></svg>