<?xml version="1.0" encoding="UTF-8" standalone="no"?>
<!-- Generator: Adobe Illustrator 15.1.0, SVG Export Plug-In . SVG Version: 6.00 Build 0)  -->

<svg
   xmlns:dc="http://purl.org/dc/elements/1.1/"
   xmlns:cc="http://creativecommons.org/ns#"
   xmlns:rdf="http://www.w3.org/1999/02/22-rdf-syntax-ns#"
   xmlns:svg="http://www.w3.org/2000/svg"
   xmlns="http://www.w3.org/2000/svg"
   xmlns:sodipodi="http://sodipodi.sourceforge.net/DTD/sodipodi-0.dtd"
   xmlns:inkscape="http://www.inkscape.org/namespaces/inkscape"
   version="1.0"
   id="Layer_1"
   x="0px"
   y="0px"
   width="337.44998"
   height="337.34"
   viewBox="0 0 337.44998 337.34"
   enable-background="new 0 0 792 612"
   xml:space="preserve"
   inkscape:version="0.48.4 r9939"
   sodipodi:docname="html5.svg"><metadata
     id="metadata49"><rdf:RDF><cc:Work
         rdf:about=""><dc:format>image/svg+xml</dc:format><dc:type
           rdf:resource="http://purl.org/dc/dcmitype/StillImage" /><dc:title /></cc:Work></rdf:RDF></metadata><defs
     id="defs47" /><sodipodi:namedview
     pagecolor="#ffffff"
     bordercolor="#666666"
     borderopacity="1"
     objecttolerance="10"
     gridtolerance="10"
     guidetolerance="10"
     inkscape:pageopacity="0"
     inkscape:pageshadow="2"
     inkscape:window-width="640"
     inkscape:window-height="480"
     id="namedview45"
     showgrid="false"
     inkscape:zoom="0.38257576"
     inkscape:cx="367.687"
     inkscape:cy="194.986"
     inkscape:window-x="2583"
     inkscape:window-y="289"
     inkscape:window-maximized="0"
     inkscape:current-layer="g3"
     fit-margin-top="0"
     fit-margin-left="20"
     fit-margin-right="20"
     fit-margin-bottom="0" /><g
     id="g3"
     transform="translate(-28.313003,-163.646)"><polygon
       points="48.313,163.646 345.763,163.646 318.665,467.217 196.856,500.986 75.383,467.266 "
       id="polygon5"
       style="fill:#e44f26" /><polygon
       points="318.623,188.471 197.038,188.471 197.038,475.175 295.465,447.887 "
       id="polygon7"
       style="fill:#f1662a" /><polygon
       points="103.663,225.709 104.555,235.7 113.707,338.316 197.038,338.316 197.038,301.08 147.763,301.08 144.359,262.948 197.038,262.948 197.038,225.709 196.909,225.709 "
       id="polygon9"
       style="fill:#ebebeb" /><polygon
       points="120.588,415.404 196.866,436.58 197.038,436.532 197.038,397.788 196.875,397.834 155.403,386.635 152.751,356.937 132.6,356.937 115.371,356.937 "
       id="polygon11"
       style="fill:#ebebeb" /><polygon
       points="273.249,415.404 273.808,409.114 282.559,311.079 283.467,301.08 273.433,301.08 196.909,301.08 196.909,338.316 242.763,338.316 238.441,386.61 196.909,397.82 196.909,436.562 "
       id="polygon21"
       style="fill:#ffffff" /><polygon
       points="286.856,262.948 287.603,254.578 289.299,235.7 290.19,225.709 196.909,225.709 196.909,248.837 196.909,262.856 196.909,262.948 286.736,262.948 286.736,262.948 "
       id="polygon23"
       style="fill:#ffffff" /></g></svg>