<?xml version="1.0" encoding="UTF-8" standalone="no"?>
<!-- Generator: Adobe Illustrator 16.2.1, SVG Export Plug-In . SVG Version: 6.00 Build 0)  -->

<svg
   xmlns:dc="http://purl.org/dc/elements/1.1/"
   xmlns:cc="http://creativecommons.org/ns#"
   xmlns:rdf="http://www.w3.org/1999/02/22-rdf-syntax-ns#"
   xmlns:svg="http://www.w3.org/2000/svg"
   xmlns="http://www.w3.org/2000/svg"
   xmlns:sodipodi="http://sodipodi.sourceforge.net/DTD/sodipodi-0.dtd"
   xmlns:inkscape="http://www.inkscape.org/namespaces/inkscape"
   version="1.1"
   id="Layer_1"
   x="0px"
   y="0px"
   width="384"
   height="384"
   viewBox="0 0 384 384"
   xml:space="preserve"
   inkscape:version="0.91 r13725"
   sodipodi:docname="trash.svg"><metadata
     id="metadata19"><rdf:RDF><cc:Work
         rdf:about=""><dc:format>image/svg+xml</dc:format><dc:type
           rdf:resource="http://purl.org/dc/dcmitype/StillImage" /><dc:title></dc:title></cc:Work></rdf:RDF></metadata><defs
     id="defs17" /><sodipodi:namedview
     pagecolor="#ffffff"
     bordercolor="#666666"
     borderopacity="1"
     objecttolerance="10"
     gridtolerance="10"
     guidetolerance="10"
     inkscape:pageopacity="0"
     inkscape:pageshadow="2"
     inkscape:window-width="1920"
     inkscape:window-height="1014"
     id="namedview15"
     showgrid="false"
     fit-margin-top="0"
     fit-margin-left="48"
     fit-margin-right="48"
     fit-margin-bottom="0"
     inkscape:zoom="0.4609375"
     inkscape:cx="-178.98305"
     inkscape:cy="192"
     inkscape:window-x="0"
     inkscape:window-y="27"
     inkscape:window-maximized="1"
     inkscape:current-layer="Layer_1" /><g
     id="g3"
     transform="translate(-64,-64)"><path
       d="m 400,113.3 -80,0 0,-20 C 320,77.1 306.9,64 290.7,64 l -69.5,0 C 205.1,64 192,77.1 192,93.3 l 0,20 -80,0 0,14.7 21.1,0 23.6,290.7 c 0,16.2 13.1,29.3 29.3,29.3 l 141,0 c 16.2,0 29.3,-13.1 29.3,-29.3 l 23.3,-290.7 20.4,0 0,-14.7 z m -193.4,-20 c 0,-8.1 6.6,-14.7 14.6,-14.7 l 69.5,0 c 8.1,0 14.6,6.6 14.6,14.7 l 0,20 -98.7,0 0,-20 z m 135,324.6 0,0.4 0,0.4 c 0,8.1 -6.6,14.7 -14.6,14.7 l -141,0 c -8.1,0 -14.6,-6.6 -14.6,-14.7 l 0,-0.4 0,-0.4 -23.7,-289.9 217.2,0 -23.3,289.9 z"
       id="path5"
       inkscape:connector-curvature="0"
       style="fill:#000000" /><g
       id="g7"><rect
         x="249"
         y="160"
         width="14"
         height="241"
         id="rect9" /><polygon
         points="305.4,160 294.7,401 309.3,401 320,160 "
         id="polygon11" /><polygon
         points="192,160 202.7,401 217.3,401 206.5,160 "
         id="polygon13" /></g></g></svg>